<svg width="227" height="69" viewBox="0 0 227 69" fill="none" xmlns="http://www.w3.org/2000/svg">
<g filter="url(#filter0_d_48_49)">
<rect x="10" y="2" width="215" height="55" rx="22" stroke="white" stroke-width="4" shape-rendering="crispEdges"/>
</g>
<rect x="13" y="5" width="209" height="49" rx="19" fill="#7751FD" stroke="black" stroke-width="2"/>
<path d="M65.3631 18.3542L69.8805 22.8688C70.3805 23.3684 70.629 23.6175 70.8078 23.9091C70.9663 24.1675 71.0836 24.4494 71.1544 24.7441C71.2142 24.9932 71.2296 25.2543 71.2334 25.6667C71.2347 25.8047 71.2348 25.9599 71.2348 26.1371V38.3829C71.2348 39.9977 71.2348 40.8051 70.9201 41.4225C70.6429 41.9661 70.1995 42.4085 69.6556 42.6854C69.0379 43 68.23 43 66.6142 43L55.6207 43C54.0049 43 53.1958 43 52.578 42.6854C52.0341 42.4085 51.5922 41.9661 51.3151 41.4225C51 40.8045 51 39.996 51 38.3781V21.6225C51 20.0046 51 19.195 51.3151 18.577C51.5922 18.0335 52.0341 17.5918 52.578 17.3149C53.1964 17 54.0064 17 55.6254 17H62.0926C62.2699 17 62.4252 17 62.5633 17.0013C62.9759 17.005 63.2359 17.0203 63.4851 17.0801C63.7801 17.1509 64.0628 17.2676 64.3214 17.426C64.6131 17.6046 64.8635 17.8548 65.3631 18.3542Z" fill="#00FAE9"/>
<path d="M56.7814 37.2222H65.4534M56.7814 32.8889H65.4534M62.5633 17.0013C62.4252 17 62.2699 17 62.0926 17H55.6254C54.0064 17 53.1964 17 52.578 17.3149C52.0341 17.5918 51.5922 18.0335 51.3151 18.577C51 19.195 51 20.0046 51 21.6225V38.3781C51 39.996 51 40.8045 51.3151 41.4225C51.5922 41.9661 52.0341 42.4085 52.578 42.6854C53.1958 43 54.0049 43 55.6207 43L66.6142 43C68.23 43 69.0379 43 69.6556 42.6854C70.1995 42.4085 70.6429 41.9661 70.9201 41.4225C71.2348 40.8051 71.2348 39.9977 71.2348 38.3829V26.1371C71.2348 25.9599 71.2347 25.8047 71.2334 25.6667M62.5633 17.0013C62.9759 17.005 63.2359 17.0203 63.4851 17.0801C63.7801 17.1509 64.0628 17.2676 64.3214 17.426C64.6131 17.6046 64.8635 17.8548 65.3631 18.3542L69.8805 22.8688C70.3805 23.3684 70.629 23.6175 70.8078 23.9091C70.9663 24.1675 71.0836 24.4494 71.1544 24.7441C71.2142 24.9932 71.2296 25.2543 71.2334 25.6667M62.5633 17.0013L62.5628 21.0447C62.5628 22.6627 62.5628 23.4713 62.8778 24.0893C63.155 24.6329 63.5969 25.0751 64.1408 25.3521C64.7585 25.6667 65.5676 25.6667 67.1834 25.6667H71.2334" stroke="black" stroke-width="2" stroke-linecap="round" stroke-linejoin="round"/>
<path d="M94.5826 18.9443H91.1578V27.5371H93.5162V30.9824H91.1578V43H87.7125V15.499H94.5826V18.9443ZM99.4939 43H96.0485V22.3691H99.4939V43ZM99.4939 21.2207H96.0485V17.5908H99.4939V21.2207ZM106.722 39.2471V35.084H110.229V38.8369C110.229 40.1084 109.771 41.2021 108.855 42.1182C107.953 43.0205 106.859 43.4717 105.574 43.4717C104.303 43.4717 103.209 43.0205 102.293 42.1182C101.39 41.2021 100.939 40.1084 100.939 38.8369V26.5527C100.939 25.2812 101.39 24.1875 102.293 23.2715C103.209 22.3691 104.303 21.918 105.574 21.918C106.859 21.918 107.953 22.3691 108.855 23.2715C109.771 24.1875 110.229 25.2812 110.229 26.5527V29.998H106.722V26.1426C106.722 25.8281 106.613 25.5615 106.394 25.3428C106.162 25.124 105.888 25.0146 105.574 25.0146C105.26 25.0146 104.993 25.124 104.774 25.3428C104.542 25.5615 104.426 25.8281 104.426 26.1426V39.2471C104.426 39.5615 104.542 39.8281 104.774 40.0469C104.993 40.2656 105.26 40.375 105.574 40.375C105.888 40.375 106.162 40.2656 106.394 40.0469C106.613 39.8281 106.722 39.5615 106.722 39.2471ZM115.776 22.4307C116.364 22.0889 117.014 21.918 117.724 21.918C119.898 21.918 120.985 23.4697 120.985 26.5732V43H117.478V26.1631C117.478 25.8486 117.369 25.5752 117.15 25.3428C116.918 25.124 116.644 25.0146 116.33 25.0146C116.015 25.0146 115.749 25.124 115.53 25.3428C115.298 25.5752 115.182 25.8486 115.182 26.1631V43H111.695V15.499H115.14V22.9434C115.127 22.9297 115.134 22.9092 115.161 22.8818C115.188 22.8545 115.229 22.8203 115.284 22.7793C115.434 22.6562 115.599 22.54 115.776 22.4307ZM125.896 43H122.451V22.3691H125.896V43ZM125.896 21.2207H122.451V17.5908H125.896V21.2207ZM130.828 30.1416H133.125V26.1426C133.125 25.8281 133.016 25.5615 132.797 25.3428C132.564 25.124 132.291 25.0146 131.977 25.0146C131.662 25.0146 131.396 25.124 131.177 25.3428C130.944 25.5615 130.828 25.8281 130.828 26.1426V30.1416ZM128.695 23.2715C129.611 22.3691 130.705 21.918 131.977 21.918C133.262 21.918 134.355 22.3691 135.258 23.2715C136.174 24.1875 136.632 25.2812 136.632 26.5527V33.5869H130.828V39.2471C130.828 39.5615 130.944 39.8281 131.177 40.0469C131.396 40.2656 131.662 40.375 131.977 40.375C132.291 40.375 132.564 40.2656 132.797 40.0469C133.016 39.8281 133.125 39.5615 133.125 39.2471V35.084H136.632V38.8369C136.632 40.1084 136.174 41.2021 135.258 42.1182C134.355 43.0205 133.262 43.4717 131.977 43.4717C130.705 43.4717 129.611 43.0205 128.695 42.1182C127.793 41.2021 127.342 40.1084 127.342 38.8369V26.5527C127.342 25.2812 127.793 24.1875 128.695 23.2715ZM143.86 25.5479C143.751 25.3564 143.416 25.2607 142.856 25.2607C142.541 25.2607 142.254 25.3701 141.994 25.5889C141.721 25.8213 141.584 26.0879 141.584 26.3887V43H138.098V22.3691H141.543V23.1689C141.529 23.1689 141.536 23.1553 141.564 23.1279C141.591 23.1006 141.625 23.0664 141.666 23.0254C141.803 22.916 141.953 22.8066 142.117 22.6973C142.65 22.3828 143.232 22.2051 143.86 22.1641V25.5479ZM154.237 39.2471V35.084H157.743V38.8369C157.743 40.1084 157.285 41.2021 156.369 42.1182C155.467 43.0205 154.373 43.4717 153.088 43.4717C151.817 43.4717 150.723 43.0205 149.807 42.1182C148.905 41.2021 148.453 40.1084 148.453 38.8369V26.5527C148.453 25.2812 148.905 24.1875 149.807 23.2715C150.723 22.3691 151.817 21.918 153.088 21.918C154.373 21.918 155.467 22.3691 156.369 23.2715C157.285 24.1875 157.743 25.2812 157.743 26.5527V29.998H154.237V26.1426C154.237 25.8281 154.127 25.5615 153.908 25.3428C153.676 25.124 153.403 25.0146 153.088 25.0146C152.774 25.0146 152.507 25.124 152.288 25.3428C152.056 25.5615 151.94 25.8281 151.94 26.1426V39.2471C151.94 39.5615 152.056 39.8281 152.288 40.0469C152.507 40.2656 152.774 40.375 153.088 40.375C153.403 40.375 153.676 40.2656 153.908 40.0469C154.127 39.8281 154.237 39.5615 154.237 39.2471ZM160.563 23.333C161.479 22.417 162.573 21.959 163.844 21.959C165.129 21.959 166.223 22.417 167.125 23.333C168.041 24.2354 168.499 25.3291 168.499 26.6143V29.4033H164.993V26.2041C164.993 25.8896 164.883 25.6162 164.664 25.3838C164.432 25.165 164.159 25.0557 163.844 25.0557C163.53 25.0557 163.263 25.165 163.044 25.3838C162.826 25.6162 162.716 25.8896 162.716 26.2041V29.5674C162.716 29.8682 162.805 30.1279 162.983 30.3467C163.188 30.5791 163.441 30.6953 163.742 30.6953H164.398C166.175 30.6953 167.392 31.5225 168.048 33.1768C168.253 33.6963 168.39 34.2705 168.458 34.8994C168.472 35.0908 168.486 35.2754 168.499 35.4531C168.499 35.5078 168.499 35.5625 168.499 35.6172V39.2471V39.2676C168.39 40.457 167.891 41.4551 167.002 42.2617C166.114 43.0684 165.061 43.4717 163.844 43.4717C162.641 43.4717 161.595 43.0684 160.706 42.2617C159.818 41.4551 159.319 40.4639 159.209 39.2881V36.0479H162.716V39.2471C162.716 39.5615 162.826 39.8281 163.044 40.0469C163.263 40.2656 163.53 40.375 163.844 40.375C164.159 40.375 164.432 40.2656 164.664 40.0469C164.883 39.8281 164.993 39.5615 164.993 39.2471V35.6787C164.993 34.9268 164.651 34.5508 163.967 34.5508H163.742C162.429 34.5508 161.315 34.0381 160.399 33.0127C159.606 32.124 159.209 31.0918 159.209 29.916V26.6143C159.209 25.3291 159.66 24.2354 160.563 23.333ZM176.22 22.3691H179.665L176.22 43H172.795L169.35 22.3691H172.795L174.497 32.6846L176.22 22.3691Z" fill="white"/>
<defs>
<filter id="filter0_d_48_49" x="0" y="0" width="227" height="69" filterUnits="userSpaceOnUse" color-interpolation-filters="sRGB">
<feFlood flood-opacity="0" result="BackgroundImageFix"/>
<feColorMatrix in="SourceAlpha" type="matrix" values="0 0 0 0 0 0 0 0 0 0 0 0 0 0 0 0 0 0 127 0" result="hardAlpha"/>
<feOffset dx="-4" dy="6"/>
<feGaussianBlur stdDeviation="2"/>
<feComposite in2="hardAlpha" operator="out"/>
<feColorMatrix type="matrix" values="0 0 0 0 0 0 0 0 0 0 0 0 0 0 0 0 0 0 0.25 0"/>
<feBlend mode="normal" in2="BackgroundImageFix" result="effect1_dropShadow_48_49"/>
<feBlend mode="normal" in="SourceGraphic" in2="effect1_dropShadow_48_49" result="shape"/>
</filter>
</defs>
</svg>
