<svg width="103" height="103" viewBox="0 0 103 103" fill="none" xmlns="http://www.w3.org/2000/svg">
<path d="M50.8017 33.4553L58.0762 44.0871L68.7079 51.3616L58.6357 58.6359L51.3613 68.7082L43.5273 58.0764L33.455 51.3616L43.5273 44.0871L50.8017 33.4553Z" fill="white"/>
<path d="M1 51.3613C1 51.3613 21.7041 51.3613 29.5381 51.3613C37.3721 51.3613 50.8018 38.4912 50.8018 30.6572C50.8018 22.8232 50.8018 1 50.8018 1" stroke="black" stroke-width="2" stroke-linecap="round"/>
<path d="M51.3613 101.163C51.3613 101.163 51.3613 80.459 51.3613 72.625C51.3613 64.791 38.4912 51.3613 30.6572 51.3613C22.8232 51.3613 1 51.3613 1 51.3613" stroke="black" stroke-width="2" stroke-linecap="round"/>
<path d="M101.163 51.3613C101.163 51.3613 80.459 51.3613 72.625 51.3613C64.791 51.3613 51.3613 64.2314 51.3613 72.0654C51.3613 79.8994 51.3613 101.723 51.3613 101.723" stroke="black" stroke-width="2" stroke-linecap="round"/>
<path d="M50.8018 1C50.8018 1 50.8018 21.7041 50.8018 29.5381C50.8018 37.3721 63.6719 51.3613 71.5059 51.3613C79.3398 51.3613 101.163 51.3613 101.163 51.3613" stroke="black" stroke-width="2" stroke-linecap="round"/>
</svg>
