<svg width="240" height="168" viewBox="0 0 240 168" fill="none" xmlns="http://www.w3.org/2000/svg">
<g filter="url(#filter0_d_39_364)">
<path d="M134.411 20.8207C140.537 22.4982 144.143 28.824 142.465 34.9497L139.259 46.6592L68.3007 27.228L71.5072 15.5185C73.1847 9.39279 79.5105 5.78676 85.6362 7.46424L134.411 20.8207Z" fill="#FFD100" stroke="white" stroke-width="13"/>
<rect x="37.494" y="80.8439" width="64.5669" height="25.2778" transform="rotate(15.3145 37.494 80.8439)" fill="white" stroke="white" stroke-width="13"/>
<circle cx="38.1695" cy="89.0411" r="20.0056" transform="rotate(15.3145 38.1695 89.0411)" fill="#FFD100" stroke="white" stroke-width="13"/>
<circle cx="94.2209" cy="104.39" r="20.0056" transform="rotate(15.3145 94.2209 104.39)" fill="#FFD100" stroke="white" stroke-width="13"/>
<rect x="129.071" y="105.922" width="64.5669" height="25.2778" transform="rotate(15.3145 129.071 105.922)" fill="white" stroke="white" stroke-width="13"/>
<circle cx="129.746" cy="114.119" r="20.0056" transform="rotate(15.3145 129.746 114.119)" fill="#FFD100" stroke="white" stroke-width="13"/>
<circle cx="185.798" cy="129.468" r="20.0056" transform="rotate(15.3145 185.798 129.468)" fill="#FFD100" stroke="white" stroke-width="13"/>
<path d="M182.519 43.3297C186.815 44.5062 190.453 47.3695 192.606 51.2691L200.763 66.0469L218.895 98.594L218.899 98.6012L225.846 111.112C228.096 115.163 228.67 119.934 227.446 124.404L225.737 130.645C223.356 139.339 214.378 144.457 205.683 142.076L26.648 93.0491C17.8589 90.6423 12.685 81.5662 15.0918 72.7771L29.9146 18.6479C32.3215 9.85877 41.3976 4.68489 50.1867 7.09171L182.519 43.3297Z" fill="white" stroke="white" stroke-width="13"/>
<path d="M83.6553 14.6979L132.43 28.0544C134.561 28.6379 135.815 30.8382 135.231 32.9688L134.006 37.4447L77.5152 21.9753L78.7409 17.4994C79.3244 15.3687 81.5246 14.1144 83.6553 14.6979Z" fill="#FFD100" stroke="black" stroke-width="2"/>
<rect x="42.7468" y="90.0584" width="49.5669" height="10.2778" transform="rotate(15.3145 42.7468 90.0584)" fill="white" stroke="black" stroke-width="2"/>
<rect x="60.9042" y="95.0306" width="10.2778" height="10.2778" transform="rotate(15.3145 60.9042 95.0306)" fill="#FFD100" stroke="black" stroke-width="2"/>
<circle cx="38.1695" cy="89.0411" r="12.5056" transform="rotate(15.3145 38.1695 89.0411)" fill="#FFD100" stroke="black" stroke-width="2"/>
<circle cx="94.2209" cy="104.39" r="12.5056" transform="rotate(15.3145 94.2209 104.39)" fill="#FFD100" stroke="black" stroke-width="2"/>
<rect x="134.324" y="115.136" width="49.5669" height="10.2778" transform="rotate(15.3145 134.324 115.136)" fill="white" stroke="black" stroke-width="2"/>
<rect x="152.481" y="120.108" width="10.2778" height="10.2778" transform="rotate(15.3145 152.481 120.108)" fill="#FFD100" stroke="black" stroke-width="2"/>
<circle cx="129.746" cy="114.119" r="12.5056" transform="rotate(15.3145 129.746 114.119)" fill="#FFD100" stroke="black" stroke-width="2"/>
<circle cx="185.798" cy="129.468" r="12.5056" transform="rotate(15.3145 185.798 129.468)" fill="#FFD100" stroke="black" stroke-width="2"/>
<path d="M48.2058 14.3254L180.538 50.5634C182.881 51.2051 184.865 52.767 186.04 54.8939L194.21 69.6936L194.212 69.6972L212.342 102.241L212.342 102.242L219.289 114.752C220.587 117.09 220.919 119.844 220.212 122.423L218.503 128.664C217.217 133.363 212.364 136.129 207.664 134.843L28.6289 85.8154C23.8348 84.5026 21.0127 79.552 22.3255 74.758L37.1483 20.6287C38.4611 15.8347 43.4117 13.0126 48.2058 14.3254Z" fill="white" stroke="black" stroke-width="2"/>
<rect x="47.2597" y="30.1908" width="32.3779" height="24.1927" rx="3" transform="rotate(15.3145 47.2597 30.1908)" fill="#00FAE9" stroke="black" stroke-width="2"/>
<rect x="90.6799" y="42.0809" width="32.3779" height="24.1927" rx="3" transform="rotate(15.3145 90.6799 42.0809)" fill="#00FAE9" stroke="black" stroke-width="2"/>
<rect x="134.1" y="53.9713" width="32.3779" height="24.1927" rx="3" transform="rotate(15.3145 134.1 53.9713)" fill="#00FAE9" stroke="black" stroke-width="2"/>
<path d="M183.266 67.435L194.703 70.567L206.835 92.3466C208.56 95.4431 205.704 99.0867 202.285 98.1508L195.225 96.2173C194.259 95.9527 193.427 95.3351 192.894 94.4866L179.452 73.0763L179.45 73.0727L179.289 72.8201C177.531 70.0512 180.102 66.5691 183.266 67.435Z" fill="#00FAE9" stroke="black" stroke-width="2"/>
<path d="M218.612 113.607C220.408 116.353 220.946 119.744 220.076 122.92L218.553 128.484L22.5725 73.8562L26.1219 60.8949L218.612 113.607Z" fill="#FF7886" stroke="black" stroke-width="2"/>
</g>
<defs>
<filter id="filter0_d_39_364" x="0" y="0" width="234.576" height="167.98" filterUnits="userSpaceOnUse" color-interpolation-filters="sRGB">
<feFlood flood-opacity="0" result="BackgroundImageFix"/>
<feColorMatrix in="SourceAlpha" type="matrix" values="0 0 0 0 0 0 0 0 0 0 0 0 0 0 0 0 0 0 127 0" result="hardAlpha"/>
<feOffset dx="-4" dy="8"/>
<feGaussianBlur stdDeviation="2"/>
<feComposite in2="hardAlpha" operator="out"/>
<feColorMatrix type="matrix" values="0 0 0 0 0 0 0 0 0 0 0 0 0 0 0 0 0 0 0.25 0"/>
<feBlend mode="normal" in2="BackgroundImageFix" result="effect1_dropShadow_39_364"/>
<feBlend mode="normal" in="SourceGraphic" in2="effect1_dropShadow_39_364" result="shape"/>
</filter>
</defs>
</svg>
