<svg width="40" height="41" viewBox="0 0 40 41" fill="none" xmlns="http://www.w3.org/2000/svg">
<path d="M19.7302 10.1534L23.8537 16.1801L29.8804 20.3036L24.1709 24.4271L20.0474 30.1366L15.6067 24.1099L9.89721 20.3036L15.6067 16.1801L19.7302 10.1534Z" fill="white"/>
<path d="M1 20.3035C3.57808 20.3035 6.09205 20.3035 7.67684 20.3035C12.1175 20.3035 19.7302 13.008 19.7302 8.56733C19.7302 6.85042 19.7302 3.94811 19.7302 1.03369" stroke="black" stroke-width="2" stroke-linecap="round"/>
<path d="M1 20.3035C2.96769 20.3035 5.78939 20.3035 8.31123 20.3035C12.7519 20.3035 20.0474 27.9162 20.0474 32.3569C20.0474 33.9872 20.0474 36.6009 20.0474 39.2561" stroke="black" stroke-width="2" stroke-linecap="round"/>
<path d="M20.0474 39.2561C20.0474 36.4498 20.0474 33.6942 20.0474 32.0396C20.0474 27.5989 27.66 20.3035 32.1007 20.3035C33.7311 20.3035 36.3448 20.3035 39 20.3035" stroke="black" stroke-width="2" stroke-linecap="round"/>
<path d="M39 20.3036C36.0856 20.3036 33.1833 20.3036 31.4664 20.3036C27.0257 20.3036 19.7302 12.3737 19.7302 7.93303C19.7302 6.29578 19.7302 3.66683 19.7302 1" stroke="black" stroke-width="2" stroke-linecap="round"/>
</svg>
