<svg width="229" height="69" viewBox="0 0 229 69" fill="none" xmlns="http://www.w3.org/2000/svg">
<g filter="url(#filter0_d_48_46)">
<rect x="10" y="2" width="217" height="55" rx="22" stroke="white" stroke-width="4" shape-rendering="crispEdges"/>
</g>
<rect x="13" y="5" width="211" height="49" rx="19" fill="#7751FD" stroke="black" stroke-width="2"/>
<path fill-rule="evenodd" clip-rule="evenodd" d="M54.7791 18.0762C55.2661 17.973 55.7703 17.9761 56.2576 18.087C56.8448 18.2207 57.3725 18.5565 58.0428 18.9649L58.4842 19.2335C58.5656 19.2831 58.5783 19.2917 58.5945 19.3009C58.7993 19.4167 59.0279 19.4807 59.2615 19.4884H59.5193C59.7525 19.4807 59.9802 19.4169 60.1844 19.3018C60.2021 19.2918 60.2226 19.2789 60.2957 19.2345L60.7342 18.9679L60.74 18.9649C61.4047 18.5609 61.9281 18.2289 62.5115 18.0958C62.9953 17.9855 63.4983 17.9808 63.9852 18.0831C64.5719 18.2064 65.102 18.5306 65.7762 18.9249L66.3885 19.2833C67.0667 19.6799 67.6071 19.9833 68.0047 20.4356C68.3335 20.8098 68.5797 21.2499 68.7264 21.7266C68.9025 22.2996 68.881 22.9201 68.868 23.7081L68.8592 24.2423C68.8579 24.3194 68.8578 24.3494 68.8582 24.3741C68.8619 24.6176 68.9229 24.858 69.0359 25.0723L69.1648 25.3009C69.2901 25.5054 69.4619 25.6751 69.6639 25.7979C69.6829 25.8095 69.7055 25.823 69.7752 25.8624L70.2293 26.1182H70.2283C70.2292 26.1188 70.2304 26.1197 70.2313 26.1202C70.9101 26.5035 71.454 26.7964 71.8572 27.2403C72.1909 27.6078 72.4431 28.0428 72.5975 28.5147C72.7835 29.0839 72.7734 29.7037 72.7752 30.4952L72.7772 31.2179C72.7789 32.0046 72.7922 32.6266 72.6072 33.1973C72.4532 33.6722 72.1998 34.1098 71.8641 34.4796C71.4583 34.9261 70.9095 35.2212 70.2244 35.6065L69.7762 35.8585L69.7742 35.8595L69.6658 35.921C69.4635 36.0435 69.2911 36.2155 69.1648 36.422C69.1516 36.4437 69.1358 36.4693 69.0994 36.5333C69.0569 36.6081 69.0454 36.6287 69.0359 36.6466C68.9231 36.8604 68.8618 37.1007 68.8582 37.3458C68.8579 37.3701 68.8579 37.3991 68.8592 37.4757L68.868 38.0284C68.8809 38.8084 68.9032 39.4259 68.7283 39.9962C68.5825 40.4714 68.3376 40.9106 68.0105 41.2843C67.6157 41.7352 67.077 42.039 66.407 42.4337L65.7938 42.795C65.1198 43.192 64.5882 43.5199 63.9998 43.6446C63.5109 43.7482 63.0066 43.7434 62.5213 43.6329C61.9342 43.4992 61.4078 43.1637 60.7371 42.755L60.2713 42.4718V42.4708C60.2131 42.4353 60.1974 42.4264 60.1844 42.419C59.9797 42.3033 59.7508 42.2392 59.5174 42.2315C59.4977 42.2309 59.4754 42.2305 59.3885 42.2305C59.3015 42.2305 59.2793 42.2309 59.2596 42.2315C59.0274 42.2392 58.7997 42.3032 58.5945 42.419C58.5764 42.4293 58.5539 42.4425 58.4832 42.4854L58.0447 42.752C57.3774 43.1576 56.8519 43.4909 56.2674 43.6241C55.7827 43.7345 55.2804 43.7388 54.7947 43.6368C54.208 43.5135 53.6781 43.1894 53.0037 42.795L52.3914 42.4366C51.7141 42.0405 51.172 41.7375 50.7742 41.2852C50.4452 40.9109 50.1992 40.4698 50.0525 39.9932C49.8761 39.4191 49.8977 38.7975 49.9109 38.0011L49.9188 37.4884C49.9202 37.3985 49.9211 37.3722 49.9207 37.3497C49.9166 37.108 49.8568 36.8719 49.7479 36.6622C49.7385 36.6441 49.7294 36.6295 49.6795 36.5411C49.6336 36.4597 49.6216 36.4378 49.6102 36.419C49.485 36.2137 49.3138 36.0427 49.1131 35.92C49.096 35.9095 49.0805 35.9011 48.993 35.8516L48.5486 35.6007C47.868 35.2164 47.3251 34.9236 46.9217 34.4796C46.5868 34.111 46.3364 33.6754 46.1824 33.2052C45.9965 32.6368 46.0045 32.0193 46.0027 31.2247L46.0008 30.5167C45.999 29.7184 45.9872 29.0951 46.1727 28.5225C46.3266 28.0477 46.5801 27.6101 46.9158 27.2403C47.3216 26.7935 47.8698 26.499 48.5555 26.1134L49.0027 25.8614C49.0836 25.8159 49.0993 25.8074 49.115 25.7979C49.3171 25.6756 49.4888 25.5041 49.615 25.2979C49.6248 25.2819 49.6317 25.2696 49.6795 25.1856C49.7218 25.1112 49.7335 25.0912 49.743 25.0733L49.8182 24.9063C49.8839 24.7363 49.9199 24.5556 49.9227 24.3741C49.9225 24.3723 49.9221 24.3661 49.9217 24.3507C49.9211 24.3283 49.9205 24.2909 49.9197 24.2442L49.9109 23.71C49.8978 22.9166 49.8763 22.2972 50.0516 21.7247C50.1972 21.2498 50.4419 20.8098 50.7693 20.4356C51.164 19.9847 51.7015 19.6815 52.3709 19.2872C52.373 19.2859 52.3756 19.2845 52.3777 19.2833L52.9822 18.9268L52.9852 18.9259C53.6596 18.5285 54.1907 18.2012 54.7791 18.0762ZM59.5701 25.6192C56.6237 25.6193 54.2352 27.9655 54.2352 30.8595C54.2352 33.7534 56.6237 36.0996 59.5701 36.0997C62.5166 36.0997 64.9051 33.7534 64.9051 30.8595C64.9051 27.9655 62.5166 25.6192 59.5701 25.6192Z" fill="#FFD100"/>
<path d="M54.7791 18.0762L54.5717 17.098L54.5714 17.098L54.7791 18.0762ZM56.2576 18.087L56.4797 17.112L56.4796 17.1119L56.2576 18.087ZM58.0428 18.9649L57.5224 19.8189L57.523 19.8192L58.0428 18.9649ZM58.4842 19.2335L59.0045 18.3795L59.0039 18.3792L58.4842 19.2335ZM58.5945 19.3009L58.1021 20.1712L58.1023 20.1713L58.5945 19.3009ZM59.2615 19.4884L59.2288 20.4878C59.2397 20.4882 59.2506 20.4884 59.2615 20.4884V19.4884ZM59.5193 19.4884V20.4884C59.5302 20.4884 59.5411 20.4882 59.552 20.4878L59.5193 19.4884ZM60.1844 19.3018L60.6754 20.173L60.6758 20.1727L60.1844 19.3018ZM60.2957 19.2345L60.8151 20.089L60.8152 20.0889L60.2957 19.2345ZM60.7342 18.9679L60.287 18.0734C60.2623 18.0857 60.2382 18.0991 60.2147 18.1134L60.7342 18.9679ZM60.74 18.9649L61.1873 19.8593C61.2118 19.8471 61.2359 19.8337 61.2594 19.8195L60.74 18.9649ZM62.5115 18.0958L62.2894 17.1208L62.2891 17.1208L62.5115 18.0958ZM63.9852 18.0831L64.1909 17.1045L64.1907 17.1044L63.9852 18.0831ZM65.7762 18.9249L66.2813 18.0619L66.281 18.0617L65.7762 18.9249ZM66.3885 19.2833L65.8833 20.1463L65.8836 20.1465L66.3885 19.2833ZM68.0047 20.4356L68.7558 19.7754L68.7557 19.7753L68.0047 20.4356ZM68.7264 21.7266L69.6822 21.4328L69.6822 21.4326L68.7264 21.7266ZM68.868 23.7081L67.8681 23.6915L67.8681 23.6916L68.868 23.7081ZM68.8592 24.2423L69.859 24.2588L69.859 24.2587L68.8592 24.2423ZM68.8582 24.3741L67.8583 24.389L67.8583 24.3895L68.8582 24.3741ZM69.0359 25.0723L68.1514 25.5389C68.1558 25.5472 68.1603 25.5555 68.165 25.5637L69.0359 25.0723ZM69.1648 25.3009L68.2939 25.7922C68.2997 25.8026 68.3058 25.8129 68.312 25.8231L69.1648 25.3009ZM69.6639 25.7979L69.1443 26.6524L69.1443 26.6524L69.6639 25.7979ZM69.7752 25.8624L69.2835 26.7332L69.2843 26.7336L69.7752 25.8624ZM70.2293 26.1182V27.1182C70.6839 27.1182 71.0812 26.8117 71.1966 26.372C71.3119 25.9323 71.1162 25.4702 70.7202 25.247L70.2293 26.1182ZM70.2283 26.1182V25.1182C69.7758 25.1182 69.3796 25.4222 69.2624 25.8592C69.1452 26.2963 69.3362 26.7577 69.728 26.9841L70.2283 26.1182ZM70.2313 26.1202L69.7395 26.991L69.7396 26.991L70.2313 26.1202ZM71.8572 27.2403L72.5975 26.568L72.5974 26.5679L71.8572 27.2403ZM72.5975 28.5147L73.548 28.204L73.5479 28.2038L72.5975 28.5147ZM72.7752 30.4952L71.7752 30.4974V30.4979L72.7752 30.4952ZM72.7772 31.2179L73.7771 31.2156V31.2151L72.7772 31.2179ZM72.6072 33.1973L73.5584 33.5059L73.5585 33.5057L72.6072 33.1973ZM71.8641 34.4796L72.6042 35.1521L72.6044 35.1518L71.8641 34.4796ZM70.2244 35.6065L70.7144 36.4783L70.7147 36.4781L70.2244 35.6065ZM69.7762 35.8585L70.2234 36.7529C70.2378 36.7457 70.2521 36.7381 70.2662 36.7302L69.7762 35.8585ZM69.7742 35.8595L69.327 34.965C69.3113 34.9729 69.2959 34.9811 69.2806 34.9898L69.7742 35.8595ZM69.6658 35.921L69.1722 35.0513C69.164 35.0559 69.1559 35.0607 69.1478 35.0656L69.6658 35.921ZM69.1648 36.422L68.3117 35.9002L68.3117 35.9002L69.1648 36.422ZM69.0994 36.5333L68.2303 36.0386L68.2303 36.0387L69.0994 36.5333ZM69.0359 36.6466L68.1517 36.1795L68.1515 36.1799L69.0359 36.6466ZM68.8582 37.3458L67.8583 37.3311L67.8583 37.3314L68.8582 37.3458ZM68.8592 37.4757L69.8591 37.4598L69.859 37.4591L68.8592 37.4757ZM68.868 38.0284L67.8681 38.0443L67.8681 38.045L68.868 38.0284ZM68.7283 39.9962L69.6843 40.2895L69.6844 40.2893L68.7283 39.9962ZM68.0105 41.2843L68.7629 41.943L68.763 41.9429L68.0105 41.2843ZM66.407 42.4337L65.8995 41.5721L65.8994 41.5721L66.407 42.4337ZM65.7938 42.795L66.3013 43.6566L66.3014 43.6566L65.7938 42.795ZM63.9998 43.6446L64.2071 44.6229L64.2072 44.6229L63.9998 43.6446ZM62.5213 43.6329L62.2992 44.6079L62.2993 44.6079L62.5213 43.6329ZM60.7371 42.755L61.2575 41.901L61.2566 41.9005L60.7371 42.755ZM60.2713 42.4718H59.2713C59.2713 42.8209 59.4534 43.1448 59.7518 43.3262L60.2713 42.4718ZM60.2713 42.4708H61.2713C61.2713 42.1221 61.0897 41.7986 60.7919 41.617L60.2713 42.4708ZM60.1844 42.419L60.6768 41.5486L60.6765 41.5485L60.1844 42.419ZM59.5174 42.2315L59.5503 41.2321L59.5499 41.2321L59.5174 42.2315ZM59.3885 42.2305L59.3885 41.2305H59.3885L59.3885 42.2305ZM59.2596 42.2315L59.2271 41.2321L59.2267 41.2321L59.2596 42.2315ZM58.5945 42.419L58.1031 41.5481L58.1025 41.5485L58.5945 42.419ZM58.4832 42.4854L57.9639 41.6309L57.9637 41.631L58.4832 42.4854ZM58.0447 42.752L58.5641 43.6066L58.5643 43.6065L58.0447 42.752ZM56.2674 43.6241L56.4894 44.5991L56.4895 44.5991L56.2674 43.6241ZM54.7947 43.6368L54.5891 44.6154L54.5892 44.6154L54.7947 43.6368ZM53.0037 42.795L52.4986 43.658L52.4988 43.6582L53.0037 42.795ZM52.3914 42.4366L52.8966 41.5736L52.8963 41.5734L52.3914 42.4366ZM50.7742 41.2852L50.0232 41.9455L50.0233 41.9456L50.7742 41.2852ZM50.0525 39.9932L49.0967 40.287L49.0968 40.2873L50.0525 39.9932ZM49.9109 38.0011L50.9108 38.0177L50.9108 38.0163L49.9109 38.0011ZM49.9188 37.4884L48.9189 37.4717L48.9189 37.4731L49.9188 37.4884ZM49.9207 37.3497L50.9206 37.334L50.9206 37.3329L49.9207 37.3497ZM49.7479 36.6622L50.6352 36.2011L50.6349 36.2006L49.7479 36.6622ZM49.6795 36.5411L48.8085 37.0323L48.8085 37.0323L49.6795 36.5411ZM49.6102 36.419L50.4643 35.899L50.4639 35.8984L49.6102 36.419ZM49.1131 35.92L49.6346 35.0668L49.6344 35.0667L49.1131 35.92ZM48.993 35.8516L48.5012 36.7223L48.5013 36.7224L48.993 35.8516ZM48.5486 35.6007L49.0404 34.73L49.0403 34.7299L48.5486 35.6007ZM46.9217 34.4796L46.1815 35.152L46.1816 35.1521L46.9217 34.4796ZM46.1824 33.2052L45.232 33.516L45.232 33.5163L46.1824 33.2052ZM46.0027 31.2247L47.0027 31.2225L47.0027 31.2219L46.0027 31.2247ZM46.0008 30.5167L45.0008 30.5189L45.0008 30.5194L46.0008 30.5167ZM46.1727 28.5225L45.2214 28.2141L45.2213 28.2144L46.1727 28.5225ZM46.9158 27.2403L46.1755 26.568L46.1754 26.5682L46.9158 27.2403ZM48.5555 26.1134L49.0457 26.9849L49.0463 26.9846L48.5555 26.1134ZM49.0027 25.8614L48.5125 24.9898L48.5119 24.9901L49.0027 25.8614ZM49.115 25.7979L49.6322 26.6538L49.633 26.6533L49.115 25.7979ZM49.615 25.2979L50.4678 25.8202L50.4682 25.8196L49.615 25.2979ZM49.6795 25.1856L48.8104 24.691L48.8104 24.691L49.6795 25.1856ZM49.743 25.0733L50.6268 25.5411C50.6367 25.5224 50.6461 25.5033 50.6548 25.4839L49.743 25.0733ZM49.8182 24.9063L50.73 25.3169C50.7374 25.3004 50.7445 25.2836 50.751 25.2666L49.8182 24.9063ZM49.9227 24.3741L50.9225 24.3891C50.923 24.357 50.922 24.325 50.9194 24.293L49.9227 24.3741ZM49.9217 24.3507L48.922 24.3776L48.922 24.3776L49.9217 24.3507ZM49.9197 24.2442L48.9199 24.2607L48.9199 24.2608L49.9197 24.2442ZM49.9109 23.71L50.9108 23.6936L50.9108 23.6935L49.9109 23.71ZM50.0516 21.7247L49.0955 21.4316L49.0954 21.4319L50.0516 21.7247ZM50.7693 20.4356L50.0169 19.777L50.0168 19.7771L50.7693 20.4356ZM52.3709 19.2872L52.8785 20.1488L52.8856 20.1446L52.3709 19.2872ZM52.3777 19.2833L52.8816 20.1471L52.8857 20.1447L52.3777 19.2833ZM52.9822 18.9268L52.666 17.9782C52.5992 18.0004 52.5349 18.0297 52.4743 18.0654L52.9822 18.9268ZM52.9852 18.9259L53.3014 19.8745C53.368 19.8523 53.4322 19.8231 53.4927 19.7875L52.9852 18.9259ZM59.5701 25.6192V24.6192H59.5701L59.5701 25.6192ZM54.2352 30.8595H53.2352V30.8595L54.2352 30.8595ZM59.5701 36.0997L59.5701 37.0997H59.5701V36.0997ZM64.9051 30.8595L65.9051 30.8595V30.8595H64.9051ZM54.7791 18.0762L54.9865 19.0545C55.3325 18.9812 55.6902 18.9834 56.0357 19.062L56.2576 18.087L56.4796 17.1119C55.8504 16.9687 55.1997 16.9649 54.5717 17.098L54.7791 18.0762ZM56.2576 18.087L56.0356 19.062C56.4275 19.1513 56.7982 19.3775 57.5224 19.8189L58.0428 18.9649L58.5631 18.111C57.9468 17.7354 57.2621 17.2901 56.4797 17.112L56.2576 18.087ZM58.0428 18.9649L57.523 19.8192L57.9644 20.0878L58.4842 19.2335L59.0039 18.3792L58.5625 18.1106L58.0428 18.9649ZM58.4842 19.2335L57.9638 20.0874C58.002 20.1107 58.0235 20.124 58.0385 20.1332C58.0501 20.1404 58.0742 20.1554 58.1021 20.1712L58.5945 19.3009L59.087 18.4305C59.0986 18.4371 59.1083 18.4432 59.0891 18.4314C59.0733 18.4217 59.0478 18.4059 59.0045 18.3795L58.4842 19.2335ZM58.5945 19.3009L58.1023 20.1713C58.4474 20.3665 58.8337 20.4749 59.2288 20.4878L59.2615 19.4884L59.2943 18.4889C59.2222 18.4865 59.1512 18.4668 59.0868 18.4304L58.5945 19.3009ZM59.2615 19.4884V20.4884H59.5193V19.4884V18.4884H59.2615V19.4884ZM59.5193 19.4884L59.552 20.4878C59.9466 20.4749 60.3315 20.3668 60.6754 20.173L60.1844 19.3018L59.6934 18.4307C59.6289 18.467 59.5583 18.4866 59.4867 18.4889L59.5193 19.4884ZM60.1844 19.3018L60.6758 20.1727C60.7011 20.1585 60.7239 20.1446 60.7397 20.135C60.7593 20.123 60.7786 20.1112 60.8151 20.089L60.2957 19.2345L59.7763 18.3799C59.7398 18.4021 59.7122 18.419 59.6989 18.4271C59.6818 18.4375 59.6854 18.4352 59.6929 18.4309L60.1844 19.3018ZM60.2957 19.2345L60.8152 20.0889L61.2537 19.8223L60.7342 18.9679L60.2147 18.1134L59.7762 18.38L60.2957 19.2345ZM60.7342 18.9679L61.1814 19.8623L61.1873 19.8593L60.74 18.9649L60.2928 18.0705L60.287 18.0734L60.7342 18.9679ZM60.74 18.9649L61.2594 19.8195C61.9775 19.383 62.3448 19.1595 62.7339 19.0707L62.5115 18.0958L62.2891 17.1208C61.5115 17.2982 60.832 17.7388 60.2207 18.1104L60.74 18.9649ZM62.5115 18.0958L62.7337 19.0708C63.0773 18.9925 63.4343 18.9892 63.7796 19.0617L63.9852 18.0831L64.1907 17.1044C63.5622 16.9724 62.9134 16.9786 62.2894 17.1208L62.5115 18.0958ZM63.9852 18.0831L63.7794 19.0617C64.171 19.144 64.5428 19.362 65.2713 19.7881L65.7762 18.9249L66.281 18.0617C65.6612 17.6992 64.9728 17.2689 64.1909 17.1045L63.9852 18.0831ZM65.7762 18.9249L65.271 19.7879L65.8833 20.1463L66.3885 19.2833L66.8936 18.4203L66.2813 18.0619L65.7762 18.9249ZM66.3885 19.2833L65.8836 20.1465C66.6138 20.5735 66.9866 20.7922 67.2537 21.0959L68.0047 20.4356L68.7557 19.7753C68.2275 19.1745 67.5196 18.7864 66.8933 18.4201L66.3885 19.2833ZM68.0047 20.4356L67.2536 21.0958C67.4891 21.3638 67.6655 21.6791 67.7706 22.0207L68.7264 21.7266L69.6822 21.4326C69.4939 20.8206 69.178 20.2557 68.7558 19.7754L68.0047 20.4356ZM68.7264 21.7266L67.7705 22.0204C67.8894 22.4074 67.8822 22.843 67.8681 23.6915L68.868 23.7081L69.8678 23.7247C69.8799 22.9972 69.9155 22.1919 69.6822 21.4328L68.7264 21.7266ZM68.868 23.7081L67.8681 23.6916L67.8593 24.2258L68.8592 24.2423L69.859 24.2587L69.8678 23.7245L68.868 23.7081ZM68.8592 24.2423L67.8593 24.2257C67.858 24.3045 67.8577 24.3476 67.8583 24.389L68.8582 24.3741L69.8581 24.3592C69.858 24.3511 69.8578 24.3342 69.859 24.2588L68.8592 24.2423ZM68.8582 24.3741L67.8583 24.3895C67.8645 24.7885 67.9641 25.1837 68.1514 25.5389L69.0359 25.0723L69.9205 24.6058C69.8817 24.5323 69.8594 24.4468 69.8581 24.3587L68.8582 24.3741ZM69.0359 25.0723L68.165 25.5637L68.2939 25.7922L69.1648 25.3009L70.0358 24.8095L69.9069 24.581L69.0359 25.0723ZM69.1648 25.3009L68.312 25.8231C68.5214 26.165 68.8082 26.448 69.1443 26.6524L69.6639 25.7979L70.1834 24.9435C70.1157 24.9023 70.0588 24.8458 70.0177 24.7787L69.1648 25.3009ZM69.6639 25.7979L69.1443 26.6524C69.1756 26.6714 69.2081 26.6905 69.2835 26.7332L69.7752 25.8624L70.2669 24.9916C70.2341 24.9731 70.2152 24.9622 70.2037 24.9555C70.1937 24.9497 70.1889 24.9468 70.1834 24.9435L69.6639 25.7979ZM69.7752 25.8624L69.2843 26.7336L69.7384 26.9895L70.2293 26.1182L70.7202 25.247L70.2661 24.9912L69.7752 25.8624ZM70.2293 26.1182V25.1182H70.2283V26.1182V27.1182H70.2293V26.1182ZM70.2283 26.1182L69.728 26.9841C69.7123 26.975 69.6992 26.9669 69.6896 26.9607C69.68 26.9545 69.672 26.9492 69.6665 26.9455C69.661 26.9417 69.6567 26.9387 69.6544 26.9371C69.6524 26.9357 69.6505 26.9343 69.6513 26.9349C69.6513 26.9349 69.6537 26.9366 69.6566 26.9387C69.6597 26.9408 69.6648 26.9444 69.6712 26.9487C69.6775 26.953 69.6864 26.9589 69.6972 26.9657C69.7079 26.9724 69.7223 26.9812 69.7395 26.991L70.2313 26.1202L70.723 25.2494C70.74 25.2591 70.7541 25.2677 70.7646 25.2743C70.7751 25.281 70.7838 25.2867 70.7899 25.2908C70.7961 25.295 70.8009 25.2984 70.8037 25.3003C70.8052 25.3013 70.8063 25.3022 70.8071 25.3027C70.8074 25.3029 70.8077 25.3032 70.8079 25.3033C70.8081 25.3034 70.8083 25.3035 70.8083 25.3035C70.8088 25.3039 70.8067 25.3024 70.8044 25.3008C70.8019 25.299 70.7973 25.2958 70.7915 25.2919C70.7858 25.288 70.7776 25.2825 70.7677 25.2762C70.7579 25.2699 70.7446 25.2616 70.7286 25.2524L70.2283 26.1182ZM70.2313 26.1202L69.7396 26.991C70.4727 27.4049 70.8468 27.6152 71.1171 27.9127L71.8572 27.2403L72.5974 26.5679C72.0612 25.9777 71.3475 25.602 70.7229 25.2494L70.2313 26.1202ZM71.8572 27.2403L71.117 27.9126C71.3552 28.175 71.5361 28.4866 71.647 28.8257L72.5975 28.5147L73.5479 28.2038C73.35 27.5989 73.0266 27.0405 72.5975 26.568L71.8572 27.2403ZM72.5975 28.5147L71.647 28.8255C71.7727 29.21 71.7733 29.6448 71.7752 30.4974L72.7752 30.4952L73.7752 30.493C73.7736 29.7626 73.7944 28.9577 73.548 28.204L72.5975 28.5147ZM72.7752 30.4952L71.7752 30.4979L71.7772 31.2206L72.7772 31.2179L73.7771 31.2151L73.7752 30.4925L72.7752 30.4952ZM72.7772 31.2179L71.7772 31.2201C71.7791 32.0688 71.7807 32.5042 71.656 32.889L72.6072 33.1973L73.5585 33.5057C73.8038 32.7489 73.7788 31.9405 73.7771 31.2156L72.7772 31.2179ZM72.6072 33.1973L71.656 32.8888C71.5456 33.2292 71.364 33.5428 71.1237 33.8073L71.8641 34.4796L72.6044 35.1518C73.0357 34.6768 73.3608 34.1152 73.5584 33.5059L72.6072 33.1973ZM71.8641 34.4796L71.124 33.8071C70.8517 34.1067 70.4732 34.3193 69.7342 34.7349L70.2244 35.6065L70.7147 36.4781C71.3457 36.1231 72.0649 35.7456 72.6042 35.1521L71.8641 34.4796ZM70.2244 35.6065L69.7344 34.7348L69.2862 34.9867L69.7762 35.8585L70.2662 36.7302L70.7144 36.4783L70.2244 35.6065ZM69.7762 35.8585L69.329 34.964L69.327 34.965L69.7742 35.8595L70.2214 36.7539L70.2234 36.7529L69.7762 35.8585ZM69.7742 35.8595L69.2806 34.9898L69.1722 35.0513L69.6658 35.921L70.1594 36.7907L70.2678 36.7291L69.7742 35.8595ZM69.6658 35.921L69.1478 35.0656C68.8065 35.2723 68.5201 35.5596 68.3117 35.9002L69.1648 36.422L70.0179 36.9437C70.0622 36.8714 70.1205 36.8147 70.1838 36.7763L69.6658 35.921ZM69.1648 36.422L68.3117 35.9002C68.2943 35.9287 68.2731 35.9635 68.2303 36.0386L69.0994 36.5333L69.9685 37.0279C69.9845 36.9998 69.9946 36.9826 70.0011 36.9716C70.0074 36.961 70.0114 36.9544 70.018 36.9437L69.1648 36.422ZM69.0994 36.5333L68.2303 36.0387C68.1898 36.1098 68.17 36.1449 68.1517 36.1795L69.0359 36.6466L69.9201 37.1137C69.9203 37.1133 69.9206 37.1128 69.9214 37.1114C69.9224 37.1096 69.9243 37.1061 69.9279 37.0997C69.9353 37.0863 69.9473 37.0652 69.9685 37.0279L69.0994 36.5333ZM69.0359 36.6466L68.1515 36.1799C67.9645 36.5343 67.8642 36.9297 67.8583 37.3311L68.8582 37.3458L69.8581 37.3604C69.8594 37.2718 69.8817 37.1864 69.9204 37.1132L69.0359 36.6466ZM68.8582 37.3458L67.8583 37.3314C67.8577 37.372 67.858 37.4138 67.8593 37.4922L68.8592 37.4757L69.859 37.4591C69.8578 37.3844 69.858 37.3682 69.8581 37.3601L68.8582 37.3458ZM68.8592 37.4757L67.8593 37.4916L67.8681 38.0443L68.868 38.0284L69.8678 38.0125L69.8591 37.4598L68.8592 37.4757ZM68.868 38.0284L67.8681 38.045C67.8821 38.8868 67.8901 39.3188 67.7723 39.703L68.7283 39.9962L69.6844 40.2893C69.9163 39.533 69.8797 38.7301 69.8678 38.0118L68.868 38.0284ZM68.7283 39.9962L67.7723 39.7028C67.6679 40.0432 67.4924 40.3579 67.2581 40.6257L68.0105 41.2843L68.763 41.9429C69.1828 41.4633 69.4971 40.8996 69.6843 40.2895L68.7283 39.9962ZM68.0105 41.2843L67.2582 40.6255C66.9934 40.9279 66.6223 41.1463 65.8995 41.5721L66.407 42.4337L66.9146 43.2953C67.5318 42.9317 68.2379 42.5425 68.7629 41.943L68.0105 41.2843ZM66.407 42.4337L65.8994 41.5721L65.2861 41.9334L65.7938 42.795L66.3014 43.6566L66.9147 43.2953L66.407 42.4337ZM65.7938 42.795L65.2862 41.9334C64.5571 42.3629 64.1847 42.5832 63.7924 42.6664L63.9998 43.6446L64.2072 44.6229C64.9918 44.4565 65.6825 44.0212 66.3013 43.6566L65.7938 42.795ZM63.9998 43.6446L63.7925 42.6663C63.4464 42.7397 63.0885 42.7364 62.7433 42.6578L62.5213 43.6329L62.2993 44.6079C62.9247 44.7503 63.5755 44.7567 64.2071 44.6229L63.9998 43.6446ZM62.5213 43.6329L62.7434 42.6579C62.3517 42.5687 61.9827 42.3429 61.2575 41.901L60.7371 42.755L60.2168 43.6089C60.8329 43.9844 61.5167 44.4297 62.2992 44.6079L62.5213 43.6329ZM60.7371 42.755L61.2566 41.9005L60.7908 41.6173L60.2713 42.4718L59.7518 43.3262L60.2176 43.6094L60.7371 42.755ZM60.2713 42.4718H61.2713V42.4708H60.2713H59.2713V42.4718H60.2713ZM60.2713 42.4708L60.7919 41.617C60.7277 41.5778 60.7021 41.563 60.6768 41.5486L60.1844 42.419L59.692 43.2894C59.6955 43.2914 59.6967 43.292 59.702 43.2952C59.7093 43.2995 59.7235 43.308 59.7506 43.3246L60.2713 42.4708ZM60.1844 42.419L60.6765 41.5485C60.3315 41.3535 59.9451 41.2451 59.5503 41.2321L59.5174 42.2315L59.4845 43.231C59.5565 43.2334 59.6279 43.2532 59.6923 43.2896L60.1844 42.419ZM59.5174 42.2315L59.5499 41.2321C59.5116 41.2308 59.4738 41.2305 59.3885 41.2305L59.3885 42.2305L59.3885 43.2305C59.4771 43.2305 59.4837 43.231 59.4848 43.231L59.5174 42.2315ZM59.3885 42.2305L59.3885 41.2305C59.3032 41.2305 59.2654 41.2308 59.2271 41.2321L59.2596 42.2315L59.2921 43.231C59.2932 43.231 59.2999 43.2305 59.3885 43.2305L59.3885 42.2305ZM59.2596 42.2315L59.2267 41.2321C58.8317 41.2451 58.447 41.3541 58.1031 41.5481L58.5945 42.419L59.086 43.2899C59.1525 43.2524 59.2231 43.2333 59.2925 43.231L59.2596 42.2315ZM58.5945 42.419L58.1025 41.5485C58.0693 41.5672 58.0349 41.5877 57.9639 41.6309L58.4832 42.4854L59.0026 43.34C59.0729 43.2973 59.0835 43.2914 59.0866 43.2896L58.5945 42.419ZM58.4832 42.4854L57.9637 41.631L57.5252 41.8976L58.0447 42.752L58.5643 43.6065L59.0027 43.3399L58.4832 42.4854ZM58.0447 42.752L57.5254 41.8975C56.8045 42.3356 56.4353 42.5602 56.0452 42.6491L56.2674 43.6241L56.4895 44.5991C57.2685 44.4216 57.9503 43.9796 58.5641 43.6066L58.0447 42.752ZM56.2674 43.6241L56.0454 42.6491C55.701 42.7275 55.3445 42.7305 55.0003 42.6582L54.7947 43.6368L54.5892 44.6154C55.2162 44.7472 55.8644 44.7414 56.4894 44.5991L56.2674 43.6241ZM54.7947 43.6368L55.0003 42.6582C54.6089 42.5759 54.2374 42.3581 53.5086 41.9318L53.0037 42.795L52.4988 43.6582C53.1188 44.0208 53.8071 44.4511 54.5891 44.6154L54.7947 43.6368ZM53.0037 42.795L53.5089 41.932L52.8966 41.5736L52.3914 42.4366L51.8863 43.2996L52.4986 43.658L53.0037 42.795ZM52.3914 42.4366L52.8963 41.5734C52.1652 41.1458 51.792 40.9282 51.5251 40.6248L50.7742 41.2852L50.0233 41.9456C50.552 42.5468 51.2631 42.9351 51.8865 43.2998L52.3914 42.4366ZM50.7742 41.2852L51.5253 40.625C51.2901 40.3575 51.1136 40.0413 51.0083 39.6992L50.0525 39.9932L49.0968 40.2873C49.2847 40.8982 49.6002 41.4644 50.0232 41.9455L50.7742 41.2852ZM50.0525 39.9932L51.0084 39.6994C50.8892 39.3115 50.8965 38.8751 50.9108 38.0177L49.9109 38.0011L48.9111 37.9844C48.8988 38.7198 48.863 39.5267 49.0967 40.287L50.0525 39.9932ZM49.9109 38.0011L50.9108 38.0163L50.9186 37.5036L49.9188 37.4884L48.9189 37.4731L48.9111 37.9858L49.9109 38.0011ZM49.9188 37.4884L50.9186 37.505C50.919 37.4832 50.9193 37.4653 50.9196 37.4501C50.9198 37.4353 50.9201 37.4217 50.9203 37.4105C50.9206 37.3896 50.921 37.363 50.9206 37.334L49.9207 37.3497L48.9208 37.3654C48.9207 37.3588 48.9209 37.3567 48.9206 37.377C48.9204 37.3864 48.9202 37.3976 48.9199 37.4138C48.9196 37.4295 48.9193 37.4485 48.9189 37.4717L49.9188 37.4884ZM49.9207 37.3497L50.9206 37.3329C50.9139 36.938 50.8163 36.5497 50.6352 36.2011L49.7479 36.6622L48.8605 37.1233C48.8973 37.1941 48.9194 37.2779 48.9208 37.3665L49.9207 37.3497ZM49.7479 36.6622L50.6349 36.2006C50.6197 36.1714 50.6053 36.1462 50.5974 36.1323C50.5877 36.1154 50.5741 36.0916 50.5505 36.0499L49.6795 36.5411L48.8085 37.0323C48.8348 37.079 48.8507 37.1068 48.8604 37.1237C48.8718 37.1438 48.8666 37.135 48.8608 37.1238L49.7479 36.6622ZM49.6795 36.5411L50.5505 36.0499C50.5302 36.0138 50.512 35.9814 50.5026 35.9647C50.4919 35.9458 50.4792 35.9234 50.4643 35.899L49.6102 36.419L48.756 36.9391C48.7526 36.9334 48.7515 36.9313 48.7612 36.9485C48.7658 36.9565 48.7714 36.9664 48.7793 36.9806C48.7871 36.9945 48.7967 37.0115 48.8085 37.0323L49.6795 36.5411ZM49.6102 36.419L50.4639 35.8984C50.2566 35.5583 49.972 35.273 49.6346 35.0668L49.1131 35.92L48.5915 36.7732C48.6557 36.8125 48.7133 36.8691 48.7564 36.9396L49.6102 36.419ZM49.1131 35.92L49.6344 35.0667C49.6114 35.0526 49.5917 35.0413 49.5725 35.0304C49.5549 35.0205 49.5257 35.0041 49.4846 34.9809L48.993 35.8516L48.5013 36.7224C48.5477 36.7486 48.5701 36.7612 48.5864 36.7704C48.6011 36.7788 48.5976 36.777 48.5917 36.7733L49.1131 35.92ZM48.993 35.8516L49.4848 34.9809L49.0404 34.73L48.5486 35.6007L48.0568 36.4714L48.5012 36.7223L48.993 35.8516ZM48.5486 35.6007L49.0403 34.7299C48.306 34.3152 47.9324 34.1049 47.6618 33.8071L46.9217 34.4796L46.1816 35.1521C46.7178 35.7422 47.4301 36.1175 48.057 36.4714L48.5486 35.6007ZM46.9217 34.4796L47.6619 33.8072C47.4238 33.5451 47.2439 33.2333 47.1328 32.8941L46.1824 33.2052L45.232 33.5163C45.4289 34.1175 45.7499 34.6769 46.1815 35.152L46.9217 34.4796ZM46.1824 33.2052L47.1329 32.8943C47.0071 32.5098 47.0046 32.0748 47.0027 31.2225L46.0027 31.2247L45.0027 31.2269C45.0044 31.9638 44.986 32.7638 45.232 33.516L46.1824 33.2052ZM46.0027 31.2247L47.0027 31.2219L47.0008 30.5139L46.0008 30.5167L45.0008 30.5194L45.0027 31.2274L46.0027 31.2247ZM46.0008 30.5167L47.0008 30.5144C46.9989 29.6565 46.9986 29.2179 47.124 28.8307L46.1727 28.5225L45.2213 28.2144C44.9758 28.9724 44.9991 29.7804 45.0008 30.5189L46.0008 30.5167ZM46.1727 28.5225L47.1239 28.831C47.2342 28.4908 47.4159 28.1772 47.6562 27.9125L46.9158 27.2403L46.1754 26.5682C45.7443 27.043 45.419 27.6046 45.2214 28.2141L46.1727 28.5225ZM46.9158 27.2403L47.6561 27.9126C47.9282 27.6129 48.3057 27.4012 49.0457 26.9849L48.5555 26.1134L48.0652 25.2418C47.4338 25.5969 46.7149 25.9741 46.1755 26.568L46.9158 27.2403ZM48.5555 26.1134L49.0463 26.9846L49.4935 26.7327L49.0027 25.8614L48.5119 24.9901L48.0647 25.2421L48.5555 26.1134ZM49.0027 25.8614L49.493 26.733C49.5127 26.7219 49.5284 26.7131 49.5413 26.7059C49.5537 26.6989 49.5647 26.6927 49.5733 26.6879C49.5896 26.6788 49.6096 26.6675 49.6322 26.6538L49.115 25.7979L48.5978 24.9421C48.6047 24.9379 48.609 24.9356 48.5933 24.9445C48.5859 24.9486 48.5768 24.9537 48.5631 24.9614C48.5497 24.9689 48.5332 24.9782 48.5125 24.9898L49.0027 25.8614ZM49.115 25.7979L49.633 26.6533C49.9744 26.4466 50.2598 26.1598 50.4678 25.8202L49.615 25.2979L48.7622 24.7757C48.7177 24.8484 48.6598 24.9045 48.5971 24.9425L49.115 25.7979ZM49.615 25.2979L50.4682 25.8196C50.4804 25.7996 50.4901 25.7829 50.5009 25.764C50.5106 25.747 50.5257 25.7205 50.5486 25.6802L49.6795 25.1856L48.8104 24.691C48.7855 24.7348 48.7732 24.7564 48.7651 24.7705C48.7581 24.7827 48.7594 24.7803 48.7619 24.7762L49.615 25.2979ZM49.6795 25.1856L50.5486 25.6802C50.5678 25.6465 50.584 25.6182 50.5931 25.6021C50.603 25.5846 50.6146 25.5641 50.6268 25.5411L49.743 25.0733L48.8591 24.6055C48.8619 24.6003 48.8629 24.5988 48.854 24.6145C48.8444 24.6314 48.8335 24.6503 48.8104 24.691L49.6795 25.1856ZM49.743 25.0733L50.6548 25.4839L50.73 25.3169L49.8182 24.9063L48.9063 24.4957L48.8311 24.6627L49.743 25.0733ZM49.8182 24.9063L50.751 25.2666C50.8578 24.99 50.918 24.6927 50.9225 24.3891L49.9227 24.3741L48.9228 24.3591C48.9219 24.4186 48.9099 24.4825 48.8853 24.546L49.8182 24.9063ZM49.9227 24.3741L50.9194 24.293C50.92 24.3007 50.9204 24.3068 50.9206 24.3108C50.9209 24.3151 50.9211 24.3185 50.9212 24.3206C50.9214 24.3249 50.9214 24.3263 50.9213 24.3237L49.9217 24.3507L48.922 24.3776C48.9227 24.4002 48.9237 24.4271 48.926 24.4552L49.9227 24.3741ZM49.9217 24.3507L50.9213 24.3238C50.9209 24.3082 50.9204 24.2787 50.9196 24.2277L49.9197 24.2442L48.9199 24.2608C48.9206 24.3032 48.9213 24.3485 48.922 24.3776L49.9217 24.3507ZM49.9197 24.2442L50.9196 24.2278L50.9108 23.6936L49.9109 23.71L48.9111 23.7265L48.9199 24.2607L49.9197 24.2442ZM49.9109 23.71L50.9108 23.6935C50.8966 22.8392 50.8893 22.4044 51.0078 22.0174L50.0516 21.7247L49.0954 21.4319C48.8633 22.1901 48.8989 22.994 48.9111 23.7266L49.9109 23.71ZM50.0516 21.7247L51.0076 22.0178C51.112 21.6774 51.2875 21.362 51.5219 21.0942L50.7693 20.4356L50.0168 19.7771C49.5963 20.2576 49.2823 20.8222 49.0955 21.4316L50.0516 21.7247ZM50.7693 20.4356L51.5218 21.0943C51.7864 20.7919 52.1565 20.5741 52.8785 20.1488L52.3709 19.2872L51.8633 18.4256C51.2464 18.789 50.5416 19.1775 50.0169 19.777L50.7693 20.4356ZM52.3709 19.2872L52.8856 20.1446C52.8785 20.1488 52.8729 20.1521 52.8697 20.1539C52.8681 20.1548 52.8667 20.1556 52.8659 20.1561C52.865 20.1566 52.8644 20.1569 52.8643 20.1569C52.8643 20.157 52.8643 20.157 52.8644 20.1569C52.8645 20.1568 52.8648 20.1567 52.8651 20.1565C52.8656 20.1562 52.8667 20.1556 52.8681 20.1548C52.8705 20.1534 52.8755 20.1506 52.8816 20.1471L52.3777 19.2833L51.8739 18.4195C51.8789 18.4166 51.8827 18.4144 51.8841 18.4136C51.8845 18.4134 51.8848 18.4132 51.885 18.4131C51.8852 18.413 51.8853 18.4129 51.8853 18.4129C51.8853 18.4129 51.8853 18.4129 51.8853 18.413C51.8852 18.413 51.8852 18.413 51.8851 18.4131C51.8849 18.4132 51.8846 18.4133 51.8843 18.4135C51.8831 18.4142 51.8797 18.4161 51.8754 18.4186C51.8711 18.421 51.8644 18.4249 51.8562 18.4298L52.3709 19.2872ZM52.3777 19.2833L52.8857 20.1447L53.4902 19.7882L52.9822 18.9268L52.4743 18.0654L51.8698 18.4219L52.3777 19.2833ZM52.9822 18.9268L53.2985 19.8755L53.3014 19.8745L52.9852 18.9259L52.6689 17.9772L52.666 17.9782L52.9822 18.9268ZM52.9852 18.9259L53.4927 19.7875C54.2221 19.3578 54.5943 19.1378 54.9868 19.0545L54.7791 18.0762L54.5714 17.098C53.7871 17.2646 53.0972 17.6992 52.4776 18.0642L52.9852 18.9259ZM59.5701 25.6192L59.5701 24.6192C56.0884 24.6193 53.2352 27.3964 53.2352 30.8595H54.2352H55.2352C55.2352 28.5346 57.159 26.6193 59.5701 26.6192L59.5701 25.6192ZM54.2352 30.8595L53.2352 30.8595C53.2352 34.3225 56.0884 37.0996 59.5701 37.0997L59.5701 36.0997L59.5701 35.0997C57.159 35.0996 55.2352 33.1843 55.2352 30.8595L54.2352 30.8595ZM59.5701 36.0997V37.0997C63.052 37.0997 65.9051 34.3225 65.9051 30.8595L64.9051 30.8595L63.9051 30.8595C63.9051 33.1843 61.9813 35.0997 59.5701 35.0997V36.0997ZM64.9051 30.8595H65.9051C65.9051 27.3964 63.052 24.6192 59.5701 24.6192V25.6192V26.6192C61.9813 26.6192 63.9051 28.5346 63.9051 30.8595H64.9051Z" fill="black"/>
<path d="M92.7229 30.6494V21.4414C92.7229 20.8262 92.5247 20.4023 92.1282 20.1699C91.9368 20.0605 91.7385 20.0127 91.5334 20.0264H90.7747V32.0645H91.5334C91.7385 32.0781 91.9368 32.0303 92.1282 31.9209C92.5247 31.6885 92.7229 31.2646 92.7229 30.6494ZM96.1067 20.9082V31.1826C96.1067 31.5654 96.0999 31.8936 96.0862 32.167C96.0452 32.8916 95.9495 33.4727 95.7991 33.9102C95.4163 35.0312 94.5549 35.5918 93.2151 35.5918H90.7747V44H87.3293V16.499H93.2151C94.5549 16.499 95.4163 17.0596 95.7991 18.1807C95.9495 18.6318 96.0452 19.2129 96.0862 19.9238C96.0999 20.1973 96.1067 20.5254 96.1067 20.9082ZM103.069 40.9648C103.178 40.8281 103.253 40.6777 103.294 40.5137C103.322 40.418 103.335 40.3291 103.335 40.2471V34.4639L103.13 34.5869L102.905 34.71C102.057 35.1748 101.496 35.7559 101.223 36.4531C101.073 36.7949 101.011 37.0957 101.038 37.3555V40.2471C101.038 40.5615 101.155 40.8281 101.387 41.0469C101.606 41.2656 101.872 41.375 102.187 41.375L102.412 41.3545L102.474 41.334L102.597 41.293L102.7 41.2725L102.782 41.2109L102.864 41.1494L102.946 41.0879L103.028 41.0059L103.069 40.9648ZM98.9056 24.2715C99.8216 23.3691 100.915 22.918 102.187 22.918C103.472 22.918 104.566 23.3691 105.468 24.2715C106.384 25.1875 106.842 26.2812 106.842 27.5527V44H104.197C103.554 44.3145 102.884 44.4717 102.187 44.4717C101.476 44.4717 100.799 44.3145 100.157 44C99.3773 43.6172 98.7484 43.0566 98.2699 42.3184C97.7913 41.5664 97.5521 40.7393 97.5521 39.8369V36.5762C97.5521 36.3574 97.5726 36.125 97.6136 35.8789C97.7777 34.8809 98.2835 33.9717 99.1312 33.1514C99.4456 32.8506 99.8011 32.5635 100.198 32.29C100.348 32.1807 100.649 31.9893 101.1 31.7158L103.335 30.4443V27.1426C103.335 26.8281 103.226 26.5615 103.007 26.3428C102.775 26.124 102.501 26.0146 102.187 26.0146C101.872 26.0146 101.606 26.124 101.387 26.3428C101.155 26.5615 101.038 26.8281 101.038 27.1426V31.0391H97.5521V27.5527C97.5521 26.2812 98.0033 25.1875 98.9056 24.2715ZM114.071 26.5479C113.961 26.3564 113.626 26.2607 113.066 26.2607C112.751 26.2607 112.464 26.3701 112.205 26.5889C111.931 26.8213 111.794 27.0879 111.794 27.3887V44H108.308V23.3691H111.753V24.1689C111.74 24.1689 111.746 24.1553 111.774 24.1279C111.801 24.1006 111.835 24.0664 111.876 24.0254C112.013 23.916 112.163 23.8066 112.328 23.6973C112.861 23.3828 113.442 23.2051 114.071 23.1641V26.5479ZM120.643 40.9648C120.752 40.8281 120.828 40.6777 120.869 40.5137C120.896 40.418 120.91 40.3291 120.91 40.2471V34.4639L120.705 34.5869L120.479 34.71C119.631 35.1748 119.071 35.7559 118.797 36.4531C118.647 36.7949 118.585 37.0957 118.613 37.3555V40.2471C118.613 40.5615 118.729 40.8281 118.961 41.0469C119.18 41.2656 119.447 41.375 119.761 41.375L119.987 41.3545L120.048 41.334L120.171 41.293L120.274 41.2725L120.356 41.2109L120.438 41.1494L120.52 41.0879L120.602 41.0059L120.643 40.9648ZM116.48 24.2715C117.396 23.3691 118.49 22.918 119.761 22.918C121.046 22.918 122.14 23.3691 123.042 24.2715C123.958 25.1875 124.416 26.2812 124.416 27.5527V44H121.771C121.128 44.3145 120.458 44.4717 119.761 44.4717C119.05 44.4717 118.374 44.3145 117.731 44C116.952 43.6172 116.323 43.0566 115.844 42.3184C115.366 41.5664 115.126 40.7393 115.126 39.8369V36.5762C115.126 36.3574 115.147 36.125 115.188 35.8789C115.352 34.8809 115.858 33.9717 116.706 33.1514C117.02 32.8506 117.375 32.5635 117.772 32.29C117.922 32.1807 118.223 31.9893 118.674 31.7158L120.91 30.4443V27.1426C120.91 26.8281 120.8 26.5615 120.582 26.3428C120.349 26.124 120.076 26.0146 119.761 26.0146C119.447 26.0146 119.18 26.124 118.961 26.3428C118.729 26.5615 118.613 26.8281 118.613 27.1426V31.0391H115.126V27.5527C115.126 26.2812 115.578 25.1875 116.48 24.2715ZM135.254 23.7998C135.856 23.2119 136.676 22.918 137.715 22.918C139.889 22.918 140.976 24.4697 140.976 27.5732V44H137.49V27.1631C137.49 26.8486 137.374 26.5752 137.141 26.3428C136.922 26.124 136.656 26.0146 136.341 26.0146C136.027 26.0146 135.753 26.124 135.521 26.3428C135.302 26.5752 135.193 26.8486 135.193 27.1631V44H131.666V27.1631C131.666 26.8486 131.556 26.5752 131.337 26.3428C131.105 26.124 130.832 26.0146 130.517 26.0146C130.203 26.0146 129.936 26.124 129.717 26.3428C129.485 26.5752 129.369 26.8486 129.369 27.1631V44H125.882V23.3691H129.328V23.9434C129.314 23.9297 129.321 23.9092 129.348 23.8818C129.376 23.8545 129.417 23.8203 129.471 23.7793C129.622 23.6562 129.786 23.54 129.963 23.4307C130.551 23.0889 131.201 22.918 131.912 22.918C133.252 22.918 134.174 23.499 134.68 24.6611C134.762 24.374 134.954 24.0869 135.254 23.7998ZM145.908 31.1416H148.205V27.1426C148.205 26.8281 148.095 26.5615 147.877 26.3428C147.644 26.124 147.371 26.0146 147.056 26.0146C146.742 26.0146 146.475 26.124 146.256 26.3428C146.024 26.5615 145.908 26.8281 145.908 27.1426V31.1416ZM143.775 24.2715C144.691 23.3691 145.785 22.918 147.056 22.918C148.341 22.918 149.435 23.3691 150.338 24.2715C151.254 25.1875 151.712 26.2812 151.712 27.5527V34.5869H145.908V40.2471C145.908 40.5615 146.024 40.8281 146.256 41.0469C146.475 41.2656 146.742 41.375 147.056 41.375C147.371 41.375 147.644 41.2656 147.877 41.0469C148.095 40.8281 148.205 40.5615 148.205 40.2471V36.084H151.712V39.8369C151.712 41.1084 151.254 42.2021 150.338 43.1182C149.435 44.0205 148.341 44.4717 147.056 44.4717C145.785 44.4717 144.691 44.0205 143.775 43.1182C142.873 42.2021 142.422 41.1084 142.422 39.8369V27.5527C142.422 26.2812 142.873 25.1875 143.775 24.2715ZM145.826 21.0107L144.021 15.5146H146.769L148.574 21.0107H145.826ZM158.899 23.3896V26.8145H157.751V44H154.305V26.8145H153.177V23.3896H154.305V16.499H157.751V23.3896H158.899ZM166.128 26.5479C166.018 26.3564 165.683 26.2607 165.123 26.2607C164.808 26.2607 164.521 26.3701 164.262 26.5889C163.988 26.8213 163.851 27.0879 163.851 27.3887V44H160.365V23.3691H163.81V24.1689C163.797 24.1689 163.804 24.1553 163.831 24.1279C163.858 24.1006 163.892 24.0664 163.933 24.0254C164.07 23.916 164.221 23.8066 164.385 23.6973C164.918 23.3828 165.499 23.2051 166.128 23.1641V26.5479ZM170.67 31.1416H172.967V27.1426C172.967 26.8281 172.857 26.5615 172.639 26.3428C172.406 26.124 172.133 26.0146 171.818 26.0146C171.504 26.0146 171.237 26.124 171.018 26.3428C170.786 26.5615 170.67 26.8281 170.67 27.1426V31.1416ZM168.537 24.2715C169.453 23.3691 170.547 22.918 171.818 22.918C173.103 22.918 174.197 23.3691 175.1 24.2715C176.016 25.1875 176.474 26.2812 176.474 27.5527V34.5869H170.67V40.2471C170.67 40.5615 170.786 40.8281 171.018 41.0469C171.237 41.2656 171.504 41.375 171.818 41.375C172.133 41.375 172.406 41.2656 172.639 41.0469C172.857 40.8281 172.967 40.5615 172.967 40.2471V36.084H176.474V39.8369C176.474 41.1084 176.016 42.2021 175.1 43.1182C174.197 44.0205 173.103 44.4717 171.818 44.4717C170.547 44.4717 169.453 44.0205 168.537 43.1182C167.635 42.2021 167.183 41.1084 167.183 39.8369V27.5527C167.183 26.2812 167.635 25.1875 168.537 24.2715ZM179.293 24.333C180.209 23.417 181.303 22.959 182.574 22.959C183.859 22.959 184.953 23.417 185.855 24.333C186.771 25.2354 187.229 26.3291 187.229 27.6143V30.4033H183.723V27.2041C183.723 26.8896 183.613 26.6162 183.395 26.3838C183.162 26.165 182.889 26.0557 182.574 26.0557C182.26 26.0557 181.993 26.165 181.774 26.3838C181.556 26.6162 181.446 26.8896 181.446 27.2041V30.5674C181.446 30.8682 181.535 31.1279 181.713 31.3467C181.918 31.5791 182.171 31.6953 182.472 31.6953H183.128C184.905 31.6953 186.122 32.5225 186.778 34.1768C186.983 34.6963 187.12 35.2705 187.188 35.8994C187.202 36.0908 187.216 36.2754 187.229 36.4531C187.229 36.5078 187.229 36.5625 187.229 36.6172V40.2471V40.2676C187.12 41.457 186.621 42.4551 185.732 43.2617C184.844 44.0684 183.791 44.4717 182.574 44.4717C181.371 44.4717 180.325 44.0684 179.436 43.2617C178.548 42.4551 178.049 41.4639 177.939 40.2881V37.0479H181.446V40.2471C181.446 40.5615 181.556 40.8281 181.774 41.0469C181.993 41.2656 182.26 41.375 182.574 41.375C182.889 41.375 183.162 41.2656 183.395 41.0469C183.613 40.8281 183.723 40.5615 183.723 40.2471V36.6787C183.723 35.9268 183.381 35.5508 182.697 35.5508H182.472C181.159 35.5508 180.045 35.0381 179.129 34.0127C178.336 33.124 177.939 32.0918 177.939 30.916V27.6143C177.939 26.3291 178.391 25.2354 179.293 24.333Z" fill="white"/>
<defs>
<filter id="filter0_d_48_46" x="0" y="0" width="229" height="69" filterUnits="userSpaceOnUse" color-interpolation-filters="sRGB">
<feFlood flood-opacity="0" result="BackgroundImageFix"/>
<feColorMatrix in="SourceAlpha" type="matrix" values="0 0 0 0 0 0 0 0 0 0 0 0 0 0 0 0 0 0 127 0" result="hardAlpha"/>
<feOffset dx="-4" dy="6"/>
<feGaussianBlur stdDeviation="2"/>
<feComposite in2="hardAlpha" operator="out"/>
<feColorMatrix type="matrix" values="0 0 0 0 0 0 0 0 0 0 0 0 0 0 0 0 0 0 0.25 0"/>
<feBlend mode="normal" in2="BackgroundImageFix" result="effect1_dropShadow_48_46"/>
<feBlend mode="normal" in="SourceGraphic" in2="effect1_dropShadow_48_46" result="shape"/>
</filter>
</defs>
</svg>
