<svg width="187" height="88" viewBox="0 0 187 88" fill="none" xmlns="http://www.w3.org/2000/svg">
<g filter="url(#filter0_d_51_221)">
<rect x="10" y="2" width="175" height="74" rx="22" stroke="white" stroke-width="4" shape-rendering="crispEdges"/>
</g>
<rect x="13" y="5" width="169" height="68" rx="19" fill="#7751FD" stroke="black" stroke-width="2"/>
<path d="M86.8701 26.9443H83.4453V35.5371H86.8701V38.9824H83.4453V47.5547H86.8701V51H80V23.499H86.8701V26.9443ZM92.4171 30.4307C93.005 30.0889 93.6475 29.918 94.3448 29.918C96.5323 29.918 97.6261 31.4697 97.6261 34.5732V51H94.1192V34.1631C94.1192 33.8486 94.0098 33.5752 93.7911 33.3428C93.5587 33.124 93.2852 33.0146 92.9708 33.0146C92.6563 33.0146 92.3897 33.124 92.171 33.3428C91.9386 33.5752 91.8223 33.8486 91.8223 34.1631V51H88.336V30.3691H91.7813V30.9434C91.7677 30.9297 91.7745 30.9092 91.8018 30.8818C91.8292 30.8545 91.8702 30.8203 91.9249 30.7793C92.0753 30.6562 92.2393 30.54 92.4171 30.4307ZM105.962 30.3691H109.407L105.962 51H102.537L99.092 30.3691H102.537L104.239 40.6846L105.962 30.3691ZM113.744 34.1426V47.2471C113.744 47.5615 113.861 47.8281 114.093 48.0469C114.312 48.2656 114.578 48.375 114.893 48.375C115.207 48.375 115.481 48.2656 115.713 48.0469C115.932 47.8281 116.041 47.5615 116.041 47.2471V34.1426C116.041 33.8281 115.932 33.5615 115.713 33.3428C115.481 33.124 115.207 33.0146 114.893 33.0146C114.578 33.0146 114.312 33.124 114.093 33.3428C113.861 33.5615 113.744 33.8281 113.744 34.1426ZM111.612 31.2715C112.528 30.3691 113.621 29.918 114.893 29.918C116.178 29.918 117.272 30.3691 118.174 31.2715C119.09 32.1875 119.548 33.2812 119.548 34.5527V46.8369C119.548 48.1084 119.09 49.2021 118.174 50.1182C117.272 51.0205 116.178 51.4717 114.893 51.4717C113.621 51.4717 112.528 51.0205 111.612 50.1182C110.709 49.2021 110.258 48.1084 110.258 46.8369V34.5527C110.258 33.2812 110.709 32.1875 111.612 31.2715ZM127.269 30.3691H130.714L125.936 59.2236H122.491L123.865 51H123.844L120.399 30.3691H123.844L125.567 40.7051L127.269 30.3691ZM135.051 38.1416H137.348V34.1426C137.348 33.8281 137.239 33.5615 137.02 33.3428C136.787 33.124 136.514 33.0146 136.2 33.0146C135.885 33.0146 135.619 33.124 135.4 33.3428C135.167 33.5615 135.051 33.8281 135.051 34.1426V38.1416ZM132.918 31.2715C133.834 30.3691 134.928 29.918 136.2 29.918C137.485 29.918 138.579 30.3691 139.481 31.2715C140.397 32.1875 140.855 33.2812 140.855 34.5527V41.5869H135.051V47.2471C135.051 47.5615 135.167 47.8281 135.4 48.0469C135.619 48.2656 135.885 48.375 136.2 48.375C136.514 48.375 136.787 48.2656 137.02 48.0469C137.239 47.8281 137.348 47.5615 137.348 47.2471V43.084H140.855V46.8369C140.855 48.1084 140.397 49.2021 139.481 50.1182C138.579 51.0205 137.485 51.4717 136.2 51.4717C134.928 51.4717 133.834 51.0205 132.918 50.1182C132.016 49.2021 131.565 48.1084 131.565 46.8369V34.5527C131.565 33.2812 132.016 32.1875 132.918 31.2715ZM148.083 33.5479C147.974 33.3564 147.639 33.2607 147.079 33.2607C146.764 33.2607 146.477 33.3701 146.217 33.5889C145.944 33.8213 145.807 34.0879 145.807 34.3887V51H142.321V30.3691H145.766V31.1689C145.752 31.1689 145.759 31.1553 145.787 31.1279C145.814 31.1006 145.848 31.0664 145.889 31.0254C146.026 30.916 146.176 30.8066 146.34 30.6973C146.874 30.3828 147.455 30.2051 148.083 30.1641V33.5479Z" fill="white"/>
<path d="M57.7494 48.9963L63.4984 30.3118L63.4993 30.3099C63.9041 28.9943 64.1066 28.336 63.9434 27.8914C63.8012 27.504 63.4958 27.1989 63.1084 27.0566C62.6636 26.8934 62.0049 27.0958 60.6881 27.501L42.0038 33.25C40.3289 33.7654 39.4913 34.0236 39.2136 34.468C38.9728 34.8535 38.9331 35.3312 39.1073 35.7509C39.3081 36.235 40.0919 36.6272 41.6594 37.411L48.9588 41.0607C49.1964 41.1795 49.3182 41.2404 49.4235 41.3216C49.5192 41.3953 49.6043 41.4815 49.678 41.5771C49.7611 41.6849 49.8233 41.8088 49.9477 42.0575L53.589 49.3403C54.3727 50.9077 54.7656 51.6921 55.2496 51.8929C55.6694 52.0671 56.1466 52.0269 56.5321 51.786C56.9764 51.5084 57.2342 50.6707 57.7494 48.9963Z" fill="white"/>
<path d="M49.7205 41.2792L56.5313 34.4684M63.4984 30.3118L57.7494 48.9963C57.2342 50.6707 56.9764 51.5084 56.5321 51.786C56.1466 52.0269 55.6694 52.0671 55.2496 51.8929C54.7656 51.6921 54.3727 50.9077 53.589 49.3403L49.9477 42.0575C49.8233 41.8088 49.7611 41.6849 49.678 41.5771C49.6043 41.4815 49.5192 41.3953 49.4235 41.3216C49.3182 41.2404 49.1964 41.1795 48.9588 41.0607L41.6594 37.411C40.0919 36.6272 39.3081 36.235 39.1073 35.7509C38.9331 35.3312 38.9728 34.8535 39.2136 34.468C39.4913 34.0236 40.3289 33.7654 42.0038 33.25L60.6881 27.501C62.0049 27.0958 62.6636 26.8934 63.1084 27.0566C63.4958 27.1989 63.8012 27.504 63.9434 27.8914C64.1066 28.336 63.9041 28.9943 63.4993 30.3099L63.4984 30.3118Z" stroke="black" stroke-width="2" stroke-linecap="round" stroke-linejoin="round"/>
<defs>
<filter id="filter0_d_51_221" x="0" y="0" width="187" height="88" filterUnits="userSpaceOnUse" color-interpolation-filters="sRGB">
<feFlood flood-opacity="0" result="BackgroundImageFix"/>
<feColorMatrix in="SourceAlpha" type="matrix" values="0 0 0 0 0 0 0 0 0 0 0 0 0 0 0 0 0 0 127 0" result="hardAlpha"/>
<feOffset dx="-4" dy="6"/>
<feGaussianBlur stdDeviation="2"/>
<feComposite in2="hardAlpha" operator="out"/>
<feColorMatrix type="matrix" values="0 0 0 0 0 0 0 0 0 0 0 0 0 0 0 0 0 0 0.25 0"/>
<feBlend mode="normal" in2="BackgroundImageFix" result="effect1_dropShadow_51_221"/>
<feBlend mode="normal" in="SourceGraphic" in2="effect1_dropShadow_51_221" result="shape"/>
</filter>
</defs>
</svg>
