<svg width="90" height="147" viewBox="0 0 90 147" fill="none" xmlns="http://www.w3.org/2000/svg">
<g filter="url(#filter0_d_39_391)">
<path d="M48.4329 52.6271C39.0814 54.5398 33.664 64.3693 37.0412 73.2969L54.4612 119.346C55.6894 122.592 57.9723 125.333 60.9433 127.128L61.1263 127.238C64.9179 129.529 69.8331 128.524 72.4208 124.928L72.5458 124.755C74.5734 121.938 75.5967 118.52 75.4514 115.052L73.3911 65.8619C72.9916 56.3253 64.1505 49.4124 54.7991 51.3249L48.4329 52.6271Z" fill="#FFD100" stroke="white" stroke-width="13"/>
<circle cx="27.5488" cy="27.5488" r="34.0488" transform="matrix(-1 0 0 1 76.0977 13)" fill="#00FAE9" stroke="white" stroke-width="13"/>
<path d="M56.3021 58.6728L49.9358 59.9749C45.1094 60.9622 42.3131 66.0353 44.0559 70.6431L61.4771 116.693C62.1111 118.368 63.2883 119.783 64.8216 120.709L65.0046 120.819C65.4506 121.089 66.029 120.97 66.3335 120.548L66.4586 120.374C67.505 118.92 68.033 117.157 67.9582 115.367L65.8977 66.1755C65.6913 61.2536 61.1284 57.6859 56.3021 58.6728Z" fill="#FFD100" stroke="black" stroke-width="2"/>
<circle cx="27.5488" cy="27.5488" r="26.5488" transform="matrix(-1 0 0 1 76.0977 13)" fill="#00FAE9" stroke="black" stroke-width="2"/>
<path d="M28.7638 32.2843C29.1212 30.1572 33.791 17.1422 49.3002 18.5099" stroke="black" stroke-width="2" stroke-linecap="round"/>
</g>
<defs>
<filter id="filter0_d_39_391" x="0" y="0" width="89.0977" height="146.965" filterUnits="userSpaceOnUse" color-interpolation-filters="sRGB">
<feFlood flood-opacity="0" result="BackgroundImageFix"/>
<feColorMatrix in="SourceAlpha" type="matrix" values="0 0 0 0 0 0 0 0 0 0 0 0 0 0 0 0 0 0 127 0" result="hardAlpha"/>
<feOffset dx="-4" dy="8"/>
<feGaussianBlur stdDeviation="2"/>
<feComposite in2="hardAlpha" operator="out"/>
<feColorMatrix type="matrix" values="0 0 0 0 0 0 0 0 0 0 0 0 0 0 0 0 0 0 0.25 0"/>
<feBlend mode="normal" in2="BackgroundImageFix" result="effect1_dropShadow_39_391"/>
<feBlend mode="normal" in="SourceGraphic" in2="effect1_dropShadow_39_391" result="shape"/>
</filter>
</defs>
</svg>
