<svg width="167" height="69" viewBox="0 0 167 69" fill="none" xmlns="http://www.w3.org/2000/svg">
<g filter="url(#filter0_d_51_101)">
<rect x="10" y="2" width="155" height="55" rx="22" stroke="#00FAE9" stroke-width="4" shape-rendering="crispEdges"/>
</g>
<rect x="13" y="5" width="149" height="49" rx="19" fill="#7751FD" stroke="black" stroke-width="2"/>
<path d="M81.2656 35.458H83.0498L82.1475 28.2393L81.2656 35.458ZM83.8701 42L83.4805 38.8828H80.835L80.4453 42H77L80.4453 14.499H83.8701L87.3154 42H83.8701ZM93.9698 41.9795C93.3819 42.3076 92.7393 42.4717 92.0421 42.4717C89.8682 42.4717 88.7813 40.9268 88.7813 37.8369V21.3896H92.2882V38.2471C92.2882 38.5615 92.3975 38.8281 92.6163 39.0469C92.835 39.2656 93.1016 39.375 93.4161 39.375C93.7305 39.375 94.004 39.2656 94.2364 39.0469C94.4552 38.8281 94.5645 38.5615 94.5645 38.2471V21.3896H98.0714V42.0205H94.6261V41.4668C94.6261 41.4668 94.6124 41.4805 94.585 41.5078C94.5577 41.5488 94.5167 41.5898 94.462 41.6309C94.3253 41.7539 94.1612 41.8701 93.9698 41.9795ZM105.32 38.2471V25.1426C105.32 24.8281 105.211 24.5615 104.992 24.3428C104.76 24.124 104.486 24.0146 104.172 24.0146C103.858 24.0146 103.591 24.124 103.372 24.3428C103.153 24.5615 103.044 24.8281 103.044 25.1426V38.2471C103.044 38.5615 103.153 38.8281 103.372 39.0469C103.591 39.2656 103.858 39.375 104.172 39.375C104.486 39.375 104.76 39.2656 104.992 39.0469C105.211 38.8281 105.32 38.5615 105.32 38.2471ZM105.382 14.499H108.827V37.8369C108.827 39.1084 108.369 40.2021 107.453 41.1182C106.551 42.0205 105.457 42.4717 104.172 42.4717C102.901 42.4717 101.807 42.0205 100.891 41.1182C99.9884 40.2021 99.5373 39.1084 99.5373 37.8369V25.5527C99.5373 24.2812 99.9884 23.1875 100.891 22.2715C101.807 21.3691 102.901 20.918 104.172 20.918C104.569 20.918 104.972 20.9727 105.382 21.082V14.499ZM113.739 42H110.293V21.3691H113.739V42ZM113.739 20.2207H110.293V16.5908H113.739V20.2207ZM118.67 25.1426V38.2471C118.67 38.5615 118.786 38.8281 119.019 39.0469C119.238 39.2656 119.504 39.375 119.819 39.375C120.133 39.375 120.407 39.2656 120.639 39.0469C120.858 38.8281 120.967 38.5615 120.967 38.2471V25.1426C120.967 24.8281 120.858 24.5615 120.639 24.3428C120.407 24.124 120.133 24.0146 119.819 24.0146C119.504 24.0146 119.238 24.124 119.019 24.3428C118.786 24.5615 118.67 24.8281 118.67 25.1426ZM116.537 22.2715C117.453 21.3691 118.547 20.918 119.819 20.918C121.104 20.918 122.198 21.3691 123.1 22.2715C124.016 23.1875 124.474 24.2812 124.474 25.5527V37.8369C124.474 39.1084 124.016 40.2021 123.1 41.1182C122.198 42.0205 121.104 42.4717 119.819 42.4717C118.547 42.4717 117.453 42.0205 116.537 41.1182C115.635 40.2021 115.184 39.1084 115.184 37.8369V25.5527C115.184 24.2812 115.635 23.1875 116.537 22.2715Z" fill="white"/>
<path d="M59 27C59 31.186 55.64 34.5833 51.5 34.5833C47.36 34.5833 44 31.186 44 27H41C41 32.3538 44.915 36.7522 50 37.4953V42.1667H53V37.4953C58.085 36.7522 62 32.3538 62 27H59Z" fill="black"/>
<ellipse cx="51.5" cy="21.7501" rx="3.5" ry="7.58333" fill="#FF7886"/>
<path d="M51.5 30.5C54.0823 30.5 56.1667 28.5458 56.1667 26.125V17.375C56.1667 14.9542 54.0823 13 51.5 13C48.9178 13 46.8334 14.9542 46.8334 17.375V26.125C46.8334 28.5458 48.9178 30.5 51.5 30.5ZM49.9445 17.375C49.9445 16.5729 50.6445 15.9167 51.5 15.9167C52.3556 15.9167 53.0556 16.5729 53.0556 17.375V26.125C53.0556 26.9271 52.3556 27.5833 51.5 27.5833C50.6445 27.5833 49.9445 26.9271 49.9445 26.125V17.375Z" fill="black"/>
<defs>
<filter id="filter0_d_51_101" x="0" y="0" width="167" height="69" filterUnits="userSpaceOnUse" color-interpolation-filters="sRGB">
<feFlood flood-opacity="0" result="BackgroundImageFix"/>
<feColorMatrix in="SourceAlpha" type="matrix" values="0 0 0 0 0 0 0 0 0 0 0 0 0 0 0 0 0 0 127 0" result="hardAlpha"/>
<feOffset dx="-4" dy="6"/>
<feGaussianBlur stdDeviation="2"/>
<feComposite in2="hardAlpha" operator="out"/>
<feColorMatrix type="matrix" values="0 0 0 0 0 0 0 0 0 0 0 0 0 0 0 0 0 0 0.25 0"/>
<feBlend mode="normal" in2="BackgroundImageFix" result="effect1_dropShadow_51_101"/>
<feBlend mode="normal" in="SourceGraphic" in2="effect1_dropShadow_51_101" result="shape"/>
</filter>
</defs>
</svg>
